<?xml version="1.0" standalone="no"?>
<!DOCTYPE svg PUBLIC "-//W3C//DTD SVG 20010904//EN"
 "http://www.w3.org/TR/2001/REC-SVG-20010904/DTD/svg10.dtd">
<svg version="1.0" xmlns="http://www.w3.org/2000/svg"
 width="1000.000000pt" height="1000.000000pt" viewBox="0 0 1000.000000 1000.000000"
 preserveAspectRatio="xMidYMid meet">
<metadata>
Created by potrace 1.16, written by Peter Selinger 2001-2019
</metadata>
<g transform="translate(0.000000,1000.000000) scale(0.100000,-0.100000)"
fill="#000000" stroke="none">
<path d="M0 5000 l0 -5000 5000 0 5000 0 0 5000 0 5000 -5000 0 -5000 0 0
-5000z m5402 3063 c10 -9 18 -20 18 -25 0 -10 -808 -2092 -841 -2166 -16 -37
-22 -43 -45 -40 -15 2 -32 10 -37 19 -8 13 85 262 414 1110 233 601 430 1098
437 1106 18 17 32 16 54 -4z m-978 -409 c23 -22 20 -37 -11 -66 -16 -14 -202
-161 -415 -328 -214 -166 -388 -305 -388 -309 1 -3 185 -150 410 -326 225
-176 412 -325 415 -333 8 -23 -14 -52 -40 -52 -18 0 -156 103 -461 341 -240
188 -438 348 -441 357 -4 8 -2 22 4 31 5 9 180 150 389 314 553 435 507 403
538 371z m1561 -329 c399 -313 440 -348 440 -374 0 -26 -41 -61 -435 -370
-375 -294 -439 -341 -465 -339 -42 4 -46 44 -8 79 15 14 202 162 415 328 l388
303 -53 42 c-28 23 -215 170 -414 325 -370 289 -386 304 -351 339 7 7 19 12
28 12 8 0 213 -155 455 -345z m-3432 -2008 c134 -32 236 -105 276 -198 32 -74
45 -183 32 -268 -21 -135 -87 -228 -203 -286 -39 -19 -64 -37 -57 -39 135 -42
178 -66 238 -131 54 -58 78 -112 93 -209 16 -104 0 -207 -47 -303 -41 -84 -99
-140 -190 -183 -127 -61 -149 -63 -627 -67 l-438 -4 0 856 0 857 428 -5 c342
-3 440 -7 495 -20z m1337 -458 c217 -58 381 -218 446 -434 14 -45 18 -92 18
-185 0 -109 -4 -136 -27 -207 -90 -270 -330 -433 -636 -433 -135 0 -226 20
-326 69 -262 130 -394 420 -330 726 32 150 145 311 274 389 165 100 383 128
581 75z m1358 6 c168 -39 270 -126 323 -276 23 -62 23 -76 27 -511 l4 -448
-171 0 -171 0 0 398 c0 230 -4 412 -10 432 -12 45 -63 94 -114 110 -44 14
-148 16 -253 5 l-73 -7 0 -469 0 -469 -170 0 -170 0 2 597 3 598 155 22 c307
45 479 49 618 18z m1272 15 c119 -13 236 -41 340 -80 l80 -31 0 -609 c0 -409
-4 -626 -11 -662 -36 -172 -156 -288 -345 -334 -132 -33 -414 -17 -549 29
l-40 14 -37 149 c-21 82 -37 152 -38 156 0 4 18 1 39 -7 76 -27 237 -56 336
-62 168 -9 257 22 291 104 18 42 19 153 1 153 -7 0 -50 -5 -97 -11 -102 -12
-268 2 -367 32 -203 62 -342 205 -388 400 -19 83 -19 255 0 338 56 234 253
386 547 420 103 12 131 12 238 1z m1409 -21 c123 -33 197 -75 287 -164 63 -62
89 -97 118 -157 155 -324 29 -719 -275 -867 -117 -56 -213 -74 -363 -69 -153
6 -252 36 -361 109 -185 124 -287 341 -272 574 12 171 65 293 177 406 173 173
431 237 689 168z m-5156 -1959 c36 -11 74 -28 86 -38 l21 -17 -27 -58 c-20
-44 -30 -56 -42 -51 -111 46 -209 56 -282 30 -99 -35 -163 -131 -163 -245 0
-83 17 -133 62 -183 59 -65 103 -83 202 -82 67 0 96 5 138 23 29 13 54 22 56
20 2 -2 16 -28 31 -58 32 -64 31 -65 -64 -103 -47 -19 -76 -23 -171 -23 -108
0 -119 2 -180 31 -117 55 -185 136 -216 254 -21 83 -15 203 15 282 39 102 143
195 250 224 74 20 209 17 284 -6z m2645 -367 l-3 -377 -50 -20 c-34 -13 -85
-20 -160 -23 -94 -4 -118 -2 -165 16 -62 23 -121 75 -153 135 -18 34 -22 57
-22 141 0 112 15 153 77 215 57 58 109 75 226 75 l102 0 0 108 0 107 75 0 75
0 -2 -377z m-1402 134 c57 -29 118 -92 142 -146 24 -55 22 -184 -5 -241 -25
-55 -80 -113 -136 -143 -36 -19 -57 -22 -147 -22 -89 0 -111 3 -146 22 -101
54 -154 133 -162 242 -5 80 8 132 48 193 60 90 148 130 275 125 62 -3 91 -9
131 -30z m2498 12 c96 -36 152 -121 172 -261 l6 -48 -211 0 c-171 0 -211 -3
-211 -14 0 -24 44 -79 80 -98 46 -25 138 -20 199 11 24 12 44 21 46 19 1 -2
17 -28 34 -59 l31 -56 -62 -28 c-81 -37 -206 -46 -290 -21 -120 35 -198 145
-198 281 0 139 77 248 200 286 50 15 148 9 204 -12z m1206 -69 l0 -70 -64 0
c-35 0 -78 -3 -95 -6 l-31 -6 0 -204 0 -204 -75 0 -75 0 0 269 0 270 48 6 c26
3 54 8 62 9 8 2 63 4 123 5 l107 1 0 -70z"/>
<path d="M1960 4829 l0 -201 208 4 207 3 60 30 c75 38 99 80 98 170 -1 102
-49 164 -143 184 -28 6 -136 11 -240 11 l-190 0 0 -201z"/>
<path d="M1960 4161 l0 -221 223 0 c285 0 323 10 386 99 29 40 40 148 22 204
-15 43 -75 98 -128 117 -26 9 -114 14 -270 17 l-233 5 0 -221z"/>
<path d="M3622 4579 c-162 -27 -264 -156 -264 -334 0 -140 64 -255 176 -312
74 -38 197 -44 280 -13 73 28 138 90 174 168 24 50 27 70 27 157 0 89 -3 106
-28 157 -66 134 -209 203 -365 177z"/>
<path d="M6335 4581 c-133 -16 -209 -61 -252 -148 -24 -50 -28 -70 -28 -143 0
-103 15 -150 67 -206 49 -53 115 -82 215 -92 72 -8 233 1 254 14 5 3 9 124 9
279 l0 273 -47 10 c-72 16 -151 20 -218 13z"/>
<path d="M7667 4580 c-159 -27 -267 -162 -267 -336 0 -138 59 -245 170 -308
52 -29 61 -31 160 -31 98 0 109 2 160 30 70 39 134 118 156 192 25 84 16 212
-19 280 -67 130 -209 198 -360 173z"/>
<path d="M5127 2559 c-67 -11 -117 -78 -117 -156 1 -105 80 -172 187 -159 31
4 60 9 64 12 5 3 9 70 9 149 0 142 0 145 -22 149 -47 10 -84 11 -121 5z"/>
<path d="M3833 2559 c-50 -10 -83 -36 -104 -82 -23 -53 -24 -91 0 -143 38 -83
130 -114 210 -72 55 28 81 75 81 141 0 111 -81 179 -187 156z"/>
<path d="M6343 2564 c-31 -16 -73 -69 -73 -93 0 -8 40 -11 130 -11 97 0 130 3
130 13 0 26 -39 74 -73 90 -44 21 -73 21 -114 1z"/>
</g>
</svg>
